<?xml version="1.0" encoding="UTF-8" standalone="no"?>
<svg width="19px" height="18px" viewBox="0 0 19 18" version="1.1" xmlns="http://www.w3.org/2000/svg" xmlns:xlink="http://www.w3.org/1999/xlink">
    <!-- Generator: sketchtool 3.6.1 (26313) - http://www.bohemiancoding.com/sketch -->
    <title>8261A30F-4387-4CCA-B0D0-C9A489AE7E2E</title>
    <desc>Created with sketchtool.</desc>
    <defs></defs>
    <g id="Index" stroke="none" stroke-width="1" fill="none" fill-rule="evenodd">
        <g id="Desktop-HD" transform="translate(-714.000000, -274.000000)">
            <g id="checkbox-copy-4-+-tablet-card-copy-2" transform="translate(392.179875, 91.000000)">
                <g id="tablet-card-copy-2" transform="translate(-0.000000, 0.000000)">
                    <g id="Overview" transform="translate(314.000000, 180.000000)">
                        <g id="ic_card_area-+-73-m²" transform="translate(-0.000000, 0.000000)">
                            <g id="ic_card_area" transform="translate(5.000000, 0.000000)">
                                <path d="M6,12.7071068 L6,17.2675182 C6.00535355,17.2706147 6.01069141,17.2737352 6.01601344,17.2768798 L17.2768798,6.01601344 C17.2737352,6.01069141 17.2706147,6.00535355 17.2675182,6 L12.7071068,6 L6,12.7071068 Z M6,11.2928932 L6,6.73248184 C6.30366181,6.55684424 6.55684424,6.30366181 6.73248184,6 L11.2928932,6 L6,11.2928932 Z M11.2928932,18 L6.73248184,18 C6.72938535,17.9946464 6.72626476,17.9893086 6.72312022,17.9839866 L17.9839866,6.72312022 C17.9893086,6.72626476 17.9946464,6.72938535 18,6.73248184 L18,11.2928932 L11.2928932,18 Z M12.7071068,18 L17.2675182,18 C17.4431558,17.6963382 17.6963382,17.4431558 18,17.2675182 L18,12.7071068 L12.7071068,18 Z M6.73248184,4 C6.38670027,3.40217435 5.7403653,3 5,3 C3.89533333,3 3,3.89533333 3,5 C3,5.7403653 3.40217435,6.38670027 4,6.73248184 L4,17.2675182 C3.40217435,17.6132997 3,18.2596347 3,19 C3,20.1046667 3.89533333,21 5,21 C5.7403653,21 6.38670027,20.5978256 6.73248184,20 L17.2675182,20 C17.6132997,20.5978256 18.2596347,21 19,21 C20.1046667,21 21,20.1046667 21,19 C21,18.2596347 20.5978256,17.6132997 20,17.2675182 L20,6.73248184 C20.5978256,6.38670027 21,5.7403653 21,5 C21,3.89533333 20.1046667,3 19,3 C18.2596347,3 17.6132997,3.40217435 17.2675182,4 L6.73248184,4 Z" id="Fill-1" fill="#999999"></path>
                                <rect id="Rectangle-1" x="-1.13686838e-13" y="0" width="24" height="24"></rect>
                            </g>
                        </g>
                    </g>
                </g>
            </g>
        </g>
    </g>
</svg>