<?xml version="1.0" encoding="UTF-8" standalone="no"?>
<svg width="19px" height="17px" viewBox="0 0 19 17" version="1.1" xmlns="http://www.w3.org/2000/svg" xmlns:xlink="http://www.w3.org/1999/xlink">
    <!-- Generator: sketchtool 3.6.1 (26313) - http://www.bohemiancoding.com/sketch -->
    <title>1F3923F7-5BB4-4024-99E2-61D8F1250323</title>
    <desc>Created with sketchtool.</desc>
    <defs></defs>
    <g id="Index" stroke="none" stroke-width="1" fill="none" fill-rule="evenodd">
        <g id="Desktop-HD" transform="translate(-855.000000, -274.000000)">
            <g id="checkbox-copy-4-+-tablet-card-copy-2" transform="translate(392.179875, 91.000000)">
                <g id="tablet-card-copy-2" transform="translate(-0.000000, 0.000000)">
                    <g id="Overview" transform="translate(314.000000, 180.000000)">
                        <g id="ic_card_bathroom-+-2-banheiros" transform="translate(125.000000, 0.000000)">
                            <g id="ic_card_bathroom" transform="translate(21.000000, 0.000000)">
                                <rect id="Rectangle-3" x="0" y="0" width="24" height="24"></rect>
                                <path d="M15,13 L9,13 L9,14 C7.07,14 6,14 6,12 C6.55233333,12 7,11.5523333 7,11 L8,4 C8,3.44766667 7.55233333,3 7,3 L4,3 C3.44766667,3 3,3.44766667 3,4 L3,11 C3,11.5523333 3.44766667,12 4,12 C4,15 6.51866667,16 9,16 C9.08433333,16 9.174,15.9933333 9.26266667,15.9883333 C9.60666667,16.592 10.2553333,17 11,17 L11,18 L9,18 L9,20 L20,20 C20,18.8953333 19.1046667,18 18,18 L16,18 L16,17 C18.7613333,17 21,16.1046667 21,15 L21,13 L15,13 Z M19,10 L9,10 L9,12 L21,12 C21,10.8953333 20.1046667,10 19,10 Z" id="Fill-1" fill="#999999"></path>
                            </g>
                        </g>
                    </g>
                </g>
            </g>
        </g>
    </g>
</svg>