<?xml version="1.0" encoding="UTF-8" standalone="no"?>
<svg width="21px" height="16px" viewBox="0 0 21 16" version="1.1" xmlns="http://www.w3.org/2000/svg" xmlns:xlink="http://www.w3.org/1999/xlink">
    <!-- Generator: sketchtool 3.6.1 (26313) - http://www.bohemiancoding.com/sketch -->
    <title>E555C66C-0B68-4E28-8B06-B4F9F7180D00</title>
    <desc>Created with sketchtool.</desc>
    <defs></defs>
    <g id="Index" stroke="none" stroke-width="1" fill="none" fill-rule="evenodd">
        <g id="Desktop-HD" transform="translate(-770.000000, -275.000000)">
            <g id="checkbox-copy-4-+-tablet-card-copy-2" transform="translate(392.179875, 91.000000)">
                <g id="tablet-card-copy-2" transform="translate(-0.000000, 0.000000)">
                    <g id="Overview" transform="translate(314.000000, 180.000000)">
                        <g id="ic_card_beds-+-2-quartos-" transform="translate(45.000000, 0.000000)">
                            <g id="ic_card_beds" transform="translate(17.000000, 0.000000)">
                                <path d="M4,20 L2,20 L2,5 C2,4.44766667 2.44766667,4 3,4 C3.55233333,4 4,4.44766667 4,5 L4,20 Z M20,16 L22,16 L22,19.98 L20,19.98 L20,16 Z M4,16 L20,16 L20,18 L4,18 L4,16 Z M19,9 L13,9 L13,15 L22,15 L22,12 C22,10.343 20.657,9 19,9 Z M9,10 C9,11.1046667 8.10466667,12 7,12 C5.89533333,12 5,11.1046667 5,10 C5,8.89533333 5.89533333,8 7,8 C8.10466667,8 9,8.89533333 9,10 Z M10,15 L6,15 C5.44766667,15 5,14.5523333 5,14 C5,13.4476667 5.44766667,13 6,13 L10,13 L10,15 Z M11,15 L10,15 L10,9 C10,8.44766667 10.4476667,8 11,8 C11.5523333,8 12,8.44766667 12,9 L12,14 C12,14.55 11.55,15 11,15 Z" id="Fill-1" fill="#999999"></path>
                                <rect id="Rectangle-1" x="0" y="0" width="24" height="24"></rect>
                            </g>
                        </g>
                    </g>
                </g>
            </g>
        </g>
    </g>
</svg>