<?xml version="1.0" encoding="UTF-8" standalone="no"?>
<svg width="30px" height="31px" viewBox="0 0 30 31" version="1.1" xmlns="http://www.w3.org/2000/svg" xmlns:xlink="http://www.w3.org/1999/xlink">
    <!-- Generator: sketchtool 3.6.1 (26313) - http://www.bohemiancoding.com/sketch -->
    <title>43743D19-3255-4C01-9673-6E130F9D5AB5</title>
    <desc>Created with sketchtool.</desc>
    <defs></defs>
    <g id="Index" stroke="none" stroke-width="1" fill="none" fill-rule="evenodd">
        <g id="Desktop-HD" transform="translate(-38.000000, -82.000000)" fill="#FFFFFF">
            <g id="Group-8" transform="translate(0.000000, 60.000000)">
                <g id="Group-4" transform="translate(28.000000, 22.000000)">
                    <g id="Rectangle-16-+-Resumo-+-Rectangle-10-Copy-7" transform="translate(10.600000, 0.000000)">
                        <g id="building-+-Rectangle-7">
                            <path d="M19.2,14.5116279 L19.2,4.8372093 L14.4,0 L9.6,4.8372093 L9.6,8.0620155 L0,8.0620155 L0,30.6356589 L28.8,30.6356589 L28.8,14.5116279 L19.2,14.5116279 Z M3.2,24.1860465 L6.4,24.1860465 L6.4,27.4108527 L3.2,27.4108527 L3.2,24.1860465 Z M3.2,17.7364341 L6.4,17.7364341 L6.4,20.9612403 L3.2,20.9612403 L3.2,17.7364341 Z M3.2,11.2868217 L6.4,11.2868217 L6.4,14.5116279 L3.2,14.5116279 L3.2,11.2868217 Z M12.8,24.1860465 L16,24.1860465 L16,27.4108527 L12.8,27.4108527 L12.8,24.1860465 Z M12.8,17.7364341 L16,17.7364341 L16,20.9612403 L12.8,20.9612403 L12.8,17.7364341 Z M12.8,11.2868217 L16,11.2868217 L16,14.5116279 L12.8,14.5116279 L12.8,11.2868217 Z M12.8,4.8372093 L16,4.8372093 L16,8.0620155 L12.8,8.0620155 L12.8,4.8372093 Z M22.4,24.1860465 L25.6,24.1860465 L25.6,27.4108527 L22.4,27.4108527 L22.4,24.1860465 Z M22.4,17.7364341 L25.6,17.7364341 L25.6,20.9612403 L22.4,20.9612403 L22.4,17.7364341 Z" id="building"></path>
                        </g>
                    </g>
                </g>
            </g>
        </g>
    </g>
</svg>