<?xml version="1.0" encoding="UTF-8" standalone="no"?>
<svg width="48px" height="38px" viewBox="0 0 48 38" version="1.1" xmlns="http://www.w3.org/2000/svg" xmlns:xlink="http://www.w3.org/1999/xlink">
    <!-- Generator: sketchtool 3.6.1 (26313) - http://www.bohemiancoding.com/sketch -->
    <title>B56D6DC2-59DB-417B-B7E2-FE107E4C8431</title>
    <desc>Created with sketchtool.</desc>
    <defs></defs>
    <g id="Index" stroke="none" stroke-width="1" fill="none" fill-rule="evenodd">
        <g id="Desktop-HD" transform="translate(-30.000000, -11.000000)" fill="#FFFFFF">
            <g id="header--logged">
                <g id="vivapro-logo">
                    <path d="M65.5739963,30.1484375 L58.0570311,27.328125 L58.0570311,46.4765625 C55.1422895,46.625 53.3014001,46.4765625 53.3014001,46.4765625 L53.1479927,20.6484375 L75.0852584,30 L53.4548076,11 C53.4548076,11 53.7616225,11 47.7787318,15.8984375 L47.7787318,12.3359375 L50.540066,13.5234375 L47.3185095,11.1484375 L40.4151741,17.53125 L40.4151741,21.5390625 C37.5004325,24.953125 34.7390983,26.2890625 33.0516164,28.21875 C29.0630226,32.5234375 29.0630226,37.5703125 32.591394,41.578125 C35.6595431,44.84375 42.7162859,49 53.9150299,49 C64.3467367,49 73.7045913,44.6953125 78,39.203125 C74.9318509,41.4296875 71.556887,43.65625 65.5739963,45.2890625 L65.5739963,30.1484375 Z M38.5742847,41.7265625 C32.591394,39.5 33.5118387,35.046875 35.1993207,32.5234375 C37.0402101,29.703125 38.5742847,29.40625 38.5742847,29.40625 L38.5742847,41.7265625 L38.5742847,41.7265625 Z M49.0059914,35.34375 L43.0231008,36.6796875 L43.0231008,29.8515625 L49.0059914,27.4765625 L49.0059914,35.34375 L49.0059914,35.34375 Z" id="logo-vivareal"></path>
                </g>
            </g>
        </g>
    </g>
</svg>