<?xml version="1.0" encoding="UTF-8" standalone="no"?>
<svg width="27px" height="26px" viewBox="0 0 27 26" version="1.1" xmlns="http://www.w3.org/2000/svg" xmlns:xlink="http://www.w3.org/1999/xlink">
    <!-- Generator: sketchtool 3.6.1 (26313) - http://www.bohemiancoding.com/sketch -->
    <title>0A6D1E58-A6C4-48D1-94E6-79A2BB65EEE0</title>
    <desc>Created with sketchtool.</desc>
    <defs></defs>
    <g id="Index" stroke="none" stroke-width="1" fill="none" fill-rule="evenodd">
        <g id="Desktop-HD" transform="translate(-40.000000, -170.000000)" fill="#FFFFFF">
            <g id="plus-icon" transform="translate(40.000000, 170.000000)">
                <path d="M13.1551402,25.8670013 C20.4205235,25.8670013 26.3102804,20.0764758 26.3102804,12.9335006 C26.3102804,5.79052547 20.4205235,0 13.1551402,0 C5.88975688,0 0,5.79052547 0,12.9335006 C0,20.0764758 5.88975688,25.8670013 13.1551402,25.8670013 Z M13.1551402,22.99289 C18.8059939,22.99289 23.3869159,18.489148 23.3869159,12.9335006 C23.3869159,7.37785328 18.8059939,2.87411125 13.1551402,2.87411125 C7.5042865,2.87411125 2.92336449,7.37785328 2.92336449,12.9335006 C2.92336449,18.489148 7.5042865,22.99289 13.1551402,22.99289 Z" id="Oval-74-Copy"></path>
                <path d="M14.6168224,11.4718184 L14.6168224,7.18527813 L11.6934579,7.18527813 L11.6934579,11.4718184 L7.40691769,11.4718184 L7.40691769,14.3951829 L11.6934579,14.3951829 L11.6934579,18.6817231 L14.6168224,18.6817231 L14.6168224,14.3951829 L18.9033627,14.3951829 L18.9033627,11.4718184 L14.6168224,11.4718184 Z" id="Rectangle-110"></path>
            </g>
        </g>
    </g>
</svg>